<svg width="447" height="439" viewBox="0 0 447 439" fill="none" xmlns="http://www.w3.org/2000/svg">
<path d="M447 295.22H275.518V195.987H447V295.22ZM276.564 294.174H445.954V197.033H276.564V294.174Z" fill="#E0E0E0"/>
<path d="M411.624 248.899H298.485V252.216H411.624V248.899Z" fill="#F0F0F0"/>
<path d="M419.419 261.267H298.485V264.887H419.419V261.267Z" fill="#F0F0F0"/>
<path d="M419.419 273.781H298.485V277.401H419.419V273.781Z" fill="#F0F0F0"/>
<path d="M338.025 230.934H298.485V239.545H338.025V230.934Z" fill="#F0F0F0"/>
<path d="M446.477 196.51H276.073V212.31H446.477V196.51Z" fill="#E0E0E0"/>
<path d="M433.366 209.945C433.147 209.736 435.344 207.088 438.263 204.033C441.183 200.978 443.746 198.665 443.955 198.864C444.165 199.063 441.978 201.721 439.058 204.786C436.139 207.852 433.576 210.154 433.366 209.945Z" fill="white"/>
<path d="M443.976 209.945C443.767 210.154 441.214 207.852 438.284 204.786C435.354 201.721 433.168 199.074 433.387 198.864C433.607 198.655 436.15 200.957 439.079 204.033C442.009 207.109 444.175 209.736 443.976 209.945Z" fill="white"/>
<path d="M235.988 0H65.5835V98.1975H235.988V0Z" fill="#E6E6E6"/>
<path d="M201.145 52.3999H88.0063V55.7168H201.145V52.3999Z" fill="#F0F0F0"/>
<path d="M208.94 64.7675H88.0063V68.3877H208.94V64.7675Z" fill="#F0F0F0"/>
<path d="M208.94 77.2815H88.0063V80.9018H208.94V77.2815Z" fill="#F0F0F0"/>
<path d="M127.547 34.4346H88.0063V43.0458H127.547V34.4346Z" fill="#F0F0F0"/>
<path d="M235.988 0H65.5835V15.7995H235.988V0Z" fill="#E0E0E0"/>
<path d="M222.302 13.3616C222.082 13.1628 224.279 10.5051 227.199 7.44985C230.118 4.39458 232.681 2.08221 232.891 2.29148C233.1 2.50074 230.913 5.14794 227.994 8.2032C225.075 11.2585 222.511 13.5499 222.302 13.3616Z" fill="white"/>
<path d="M232.891 13.3615C232.681 13.5708 230.128 11.2689 227.199 8.20313C224.269 5.1374 222.082 2.50067 222.302 2.29141C222.522 2.08214 225.064 4.38405 227.994 7.44978C230.924 10.5155 233.11 13.1627 232.891 13.3615Z" fill="white"/>
<path d="M171.451 182.416H0V83.1722H171.451V182.416ZM1.04632 181.37H170.404V84.2186H1.04632V181.37Z" fill="#E0E0E0"/>
<path d="M136.085 136.095H22.9458V139.412H136.085V136.095Z" fill="#F0F0F0"/>
<path d="M143.88 148.463H22.9458V152.083H143.88V148.463Z" fill="#F0F0F0"/>
<path d="M143.88 160.977H22.9458V164.597H143.88V160.977Z" fill="#F0F0F0"/>
<path d="M62.4864 118.13H22.9458V126.741H62.4864V118.13Z" fill="#F0F0F0"/>
<path d="M170.927 83.6954H0.522949V99.4949H170.927V83.6954Z" fill="#E0E0E0"/>
<path d="M369.321 205.153H168.113V385.288H369.321V205.153Z" fill="#E6E6E6"/>
<path d="M178.231 148.411H20.6128V312.171H178.231V148.411Z" fill="#F0F0F0"/>
<path d="M178.231 148.411H20.6128V166.25H178.231V148.411Z" fill="#E0E0E0"/>
<path d="M33.6286 157.147C33.5999 157.794 33.3818 158.419 33.0015 158.943C32.6212 159.467 32.0954 159.868 31.4893 160.096C30.8832 160.324 30.2234 160.369 29.592 160.225C28.9606 160.081 28.3852 159.755 27.9374 159.288C27.4895 158.82 27.1888 158.231 27.0727 157.594C26.9565 156.957 27.03 156.3 27.284 155.704C27.538 155.108 27.9613 154.6 28.5014 154.243C29.0415 153.886 29.6746 153.695 30.3222 153.695C31.2177 153.717 32.0681 154.092 32.6876 154.739C33.3071 155.386 33.6454 156.252 33.6286 157.147Z" fill="white"/>
<path d="M47.0533 157.147C47.0266 157.797 46.8094 158.425 46.4286 158.953C46.0478 159.48 45.5204 159.884 44.9118 160.114C44.3033 160.344 43.6406 160.39 43.0061 160.246C42.3717 160.102 41.7935 159.775 41.3436 159.305C40.8937 158.836 40.5918 158.244 40.4757 157.604C40.3595 156.964 40.4341 156.303 40.6903 155.705C40.9464 155.107 41.3728 154.598 41.9162 154.24C42.4597 153.883 43.0963 153.693 43.7469 153.695C44.6424 153.717 45.4928 154.092 46.1123 154.739C46.7318 155.386 47.0701 156.252 47.0533 157.147Z" fill="white"/>
<path d="M60.4776 157.147C60.4509 157.797 60.2337 158.425 59.8529 158.953C59.4722 159.48 58.9447 159.884 58.3362 160.114C57.7276 160.344 57.0649 160.39 56.4304 160.246C55.796 160.102 55.2178 159.775 54.7679 159.305C54.318 158.836 54.0161 158.244 53.9 157.604C53.7838 156.964 53.8585 156.303 54.1146 155.705C54.3707 155.107 54.7971 154.598 55.3406 154.24C55.884 153.883 56.5207 153.693 57.1712 153.695C58.0667 153.717 58.9171 154.092 59.5366 154.739C60.1562 155.386 60.4944 156.252 60.4776 157.147Z" fill="white"/>
<path d="M424.494 35.8157H223.286V236.354H424.494V35.8157Z" fill="#F0F0F0"/>
<path d="M424.494 35.8157H223.286V59.3057H424.494V35.8157Z" fill="#E0E0E0"/>
<path d="M240.424 47.3252C240.388 48.1792 240.101 49.0035 239.599 49.6958C239.098 50.3881 238.404 50.9179 237.605 51.2195C236.805 51.521 235.934 51.581 235.1 51.392C234.267 51.203 233.507 50.7733 232.916 50.1562C232.324 49.5392 231.927 48.762 231.773 47.9212C231.62 47.0803 231.716 46.2129 232.051 45.4265C232.386 44.6402 232.945 43.9696 233.658 43.4979C234.371 43.0263 235.207 42.7745 236.061 42.7737C237.243 42.8011 238.365 43.2955 239.183 44.1485C240 45.0015 240.447 46.1437 240.424 47.3252Z" fill="white"/>
<path d="M256.82 44.249C257.4 44.879 257.782 45.6657 257.918 46.5111C258.055 47.3565 257.939 48.2233 257.586 49.0035C257.233 49.7836 256.658 50.4427 255.933 50.8984C255.208 51.3542 254.365 51.5866 253.509 51.5666C252.653 51.5466 251.822 51.2752 251.119 50.7861C250.416 50.297 249.872 49.6119 249.556 48.8161C249.24 48.0203 249.165 47.1491 249.34 46.3109C249.515 45.4728 249.934 44.7048 250.542 44.1026C251.395 43.2911 252.535 42.8508 253.712 42.8783C254.889 42.9057 256.006 43.3987 256.82 44.249Z" fill="white"/>
<path d="M275.769 47.3252C275.732 48.1792 275.445 49.0035 274.944 49.6958C274.443 50.3881 273.749 50.9179 272.949 51.2195C272.15 51.521 271.279 51.581 270.445 51.392C269.612 51.203 268.852 50.7733 268.26 50.1562C267.669 49.5392 267.272 48.762 267.118 47.9212C266.964 47.0803 267.061 46.2129 267.396 45.4265C267.731 44.6402 268.29 43.9696 269.003 43.4979C269.716 43.0263 270.551 42.7745 271.406 42.7737C272.587 42.8011 273.71 43.2955 274.527 44.1485C275.345 45.0015 275.792 46.1437 275.769 47.3252Z" fill="white"/>
<path d="M381.029 438.493C381.029 438.64 308.373 438.766 218.776 438.766C129.179 438.766 56.4912 438.64 56.4912 438.493C56.4912 438.347 129.137 438.221 218.776 438.221C308.415 438.221 381.029 438.357 381.029 438.493Z" fill="#263238"/>
<path d="M310.235 310.403C294.069 299.113 290.407 278.155 291.046 259.311C291.15 256.172 290.805 252.844 292.301 250.092C293.797 247.341 297.292 245.447 300.107 246.765C302.44 247.864 303.455 250.584 304.763 252.834C306.508 255.83 309.065 258.271 312.139 259.876C314.138 260.922 316.618 261.55 318.595 260.462C321.316 258.965 321.63 255.23 321.609 252.091C321.609 246.252 321.574 240.421 321.504 234.596C321.316 231.469 321.634 228.331 322.446 225.305C323.419 222.333 325.585 219.582 328.546 218.745C331.507 217.908 335.2 219.634 335.87 222.689C335.985 223.983 336.017 225.283 335.964 226.582C336.048 227.889 336.655 229.323 337.879 229.721C339.103 230.118 340.38 229.208 341.321 228.287C344.544 225.148 346.741 221.057 348.782 217.018C350.822 212.979 352.821 208.825 355.75 205.383C358.68 201.941 362.729 199.21 367.26 198.948C371.79 198.687 376.509 201.47 377.639 205.864C378.769 210.259 376.206 214.748 373.454 218.316C369.302 223.612 364.407 228.281 358.921 232.179C357.85 232.764 356.995 233.677 356.483 234.785C355.803 236.877 357.78 238.97 359.841 239.629C362.175 240.403 364.707 240.163 367.166 240.456C369.624 240.749 372.24 241.816 373.171 244.118C374.448 247.32 371.769 250.668 369.143 252.865C363.87 257.26 357.882 260.717 351.439 263.088C349.137 263.925 346.72 264.668 344.858 266.279C342.996 267.89 341.886 270.705 343.006 272.913C344.126 275.121 347.003 275.822 349.42 275.372C351.837 274.922 353.982 273.624 356.284 272.756C360.584 271.134 366.13 271.427 368.84 275.141C369.679 276.421 370.211 277.878 370.392 279.397C370.574 280.917 370.401 282.458 369.886 283.899C368.839 286.768 367.227 289.397 365.146 291.631C358.293 299.819 349.389 306.041 339.344 309.66C329.372 313.113 320.133 314.054 310.225 310.423" fill="#FF725E"/>
<path d="M373.036 201.532C373.036 201.532 372.941 201.637 372.732 201.825L371.801 202.652C370.985 203.384 369.781 204.452 368.264 205.864C363.963 209.858 359.968 214.171 356.315 218.765C353.982 221.664 351.565 224.949 348.991 228.517C346.417 232.085 343.759 235.936 341.123 240.027C338.312 244.341 335.737 248.805 333.411 253.399C332.197 255.795 331.13 258.296 330.032 260.849L326.788 268.644C322.512 278.462 318.789 288.512 315.634 298.746C313.093 307.12 311.342 315.713 310.403 324.413C309.794 330.284 309.696 336.197 310.11 342.085C310.277 344.178 310.434 345.779 310.58 346.867C310.643 347.39 310.685 347.809 310.727 348.112V348.541C310.682 348.405 310.65 348.265 310.633 348.122C310.58 347.819 310.518 347.411 310.434 346.888C310.246 345.841 310.047 344.188 309.858 342.096C309.354 336.197 309.389 330.264 309.963 324.371C310.844 315.634 312.557 307.001 315.08 298.589C318.208 288.327 321.921 278.251 326.202 268.413L329.529 260.65C330.628 258.107 331.706 255.586 332.93 253.179C335.272 248.571 337.867 244.097 340.704 239.776C343.383 235.59 346.082 231.803 348.625 228.266C351.167 224.729 353.626 221.423 355.949 218.535C359.639 213.953 363.687 209.67 368.055 205.728C369.604 204.337 370.838 203.29 371.675 202.589L372.648 201.805C372.768 201.701 372.897 201.609 373.036 201.532Z" fill="#263238"/>
<path d="M333.066 253.158C332.918 252.727 332.817 252.282 332.762 251.829C332.595 250.961 332.407 249.737 332.187 248.146C331.737 245.007 331.277 240.707 330.785 235.946C330.293 231.185 329.739 226.875 329.278 223.767C329.038 222.218 328.828 220.973 328.682 220.105C328.567 219.66 328.508 219.204 328.504 218.745C328.684 219.164 328.814 219.603 328.891 220.053C329.121 220.911 329.383 222.145 329.676 223.704C330.272 226.843 330.858 231.112 331.35 235.883C331.842 240.655 332.26 244.84 332.585 248.094C332.742 249.559 332.878 250.804 332.982 251.798C333.063 252.247 333.092 252.703 333.066 253.158Z" fill="#263238"/>
<path d="M373.328 245.646C372.819 245.756 372.301 245.819 371.78 245.834C370.734 245.928 369.248 246.054 367.406 246.263C363.723 246.661 358.659 247.393 353.103 248.439C347.547 249.486 342.556 250.668 338.967 251.578C337.178 252.039 335.734 252.457 334.782 252.74C334.273 252.92 333.747 253.047 333.212 253.116C333.696 252.873 334.2 252.674 334.719 252.52C335.703 252.175 337.126 251.693 338.904 251.181C342.472 250.134 347.463 248.889 353.04 247.822C357.764 246.919 362.531 246.255 367.323 245.834C369.175 245.677 370.671 245.614 371.717 245.593C372.255 245.557 372.794 245.574 373.328 245.646Z" fill="#263238"/>
<path d="M315.592 297.857C315.481 297.706 315.389 297.54 315.32 297.365L314.63 295.911C314.033 294.645 313.228 292.772 312.265 290.481C310.319 285.877 307.839 279.431 305.202 272.275C302.566 265.118 300.138 258.672 298.297 254.016C297.397 251.756 296.654 249.904 296.099 248.523L295.513 247.027C295.432 246.854 295.376 246.671 295.346 246.483C295.458 246.634 295.549 246.799 295.618 246.974L296.309 248.429C296.894 249.695 297.711 251.568 298.673 253.859C300.619 258.463 303.099 264.908 305.736 272.065C308.373 279.222 310.8 285.667 312.642 290.324C313.542 292.584 314.284 294.436 314.828 295.817C315.069 296.413 315.268 296.863 315.425 297.313C315.506 297.486 315.562 297.669 315.592 297.857Z" fill="#263238"/>
<path d="M369.038 280.624C368.871 280.72 368.692 280.794 368.505 280.844L366.956 281.367L361.233 283.219C356.399 284.789 349.723 287.028 342.399 289.497C335.075 291.966 328.368 294.164 323.502 295.629C321.075 296.371 319.097 296.936 317.727 297.313L316.147 297.721C315.963 297.78 315.774 297.818 315.582 297.836C315.749 297.74 315.929 297.666 316.115 297.617L317.664 297.093L323.387 295.241C328.221 293.672 334.897 291.433 342.221 288.963C349.545 286.494 356.242 284.297 361.107 282.832C363.545 282.089 365.512 281.524 366.893 281.147L368.473 280.739C368.657 280.681 368.847 280.642 369.038 280.624Z" fill="#263238"/>
<path d="M347.233 26.8172L341.844 28.7425L339.532 21.7007C335.284 8.71584 321.745 1.82056 309.304 6.20466C296.863 10.5888 290.24 24.8292 294.488 37.8141L296.8 44.8559L291.391 46.7916C289.328 47.5916 287.653 49.1558 286.714 51.159C285.774 53.1623 285.643 55.4504 286.347 57.5478L301.341 103.366C301.652 104.405 302.169 105.37 302.861 106.204C303.552 107.039 304.405 107.726 305.367 108.225C306.329 108.724 307.382 109.024 308.463 109.108C309.544 109.192 310.63 109.057 311.658 108.713L367.5 88.7387C369.59 87.94 371.289 86.3619 372.239 84.3364C373.19 82.3108 373.318 79.9957 372.596 77.8779L357.592 32.0593C357.272 31.0239 356.748 30.0635 356.049 29.2353C355.35 28.4071 354.492 27.7281 353.525 27.2389C352.559 26.7496 351.503 26.4601 350.422 26.3877C349.341 26.3153 348.256 26.4614 347.233 26.8172ZM304.669 34.1415C303.523 30.7652 303.729 27.0767 305.242 23.8487C306.756 20.6206 309.46 18.1036 312.788 16.8249C314.431 16.2626 316.171 16.0371 317.904 16.1619C319.636 16.2867 321.325 16.7591 322.871 17.5511C324.417 18.343 325.788 19.4383 326.901 20.7714C328.014 22.1045 328.848 23.6483 329.351 25.3105L331.653 32.3523L306.97 41.1833L304.669 34.1415ZM336.058 74.8017L339.888 86.4996C339.958 86.7341 339.935 86.9867 339.824 87.205C339.713 87.4232 339.522 87.5903 339.291 87.6714L333.924 89.5862C333.71 89.6454 333.482 89.6197 333.287 89.5144C333.092 89.409 332.945 89.2323 332.877 89.0212L329.017 77.3756C326.888 77.2596 324.845 76.496 323.162 75.187C321.479 73.8781 320.236 72.0862 319.6 70.0513C318.69 67.3612 318.856 64.4233 320.063 61.8527C321.27 59.2822 323.425 57.2784 326.076 56.2608C327.385 55.8135 328.771 55.6344 330.151 55.734C331.531 55.8337 332.876 56.2101 334.108 56.8409C335.339 57.4716 336.43 58.3438 337.317 59.4054C338.204 60.467 338.869 61.6963 339.27 63.0201C339.944 65.0871 339.999 67.3056 339.431 69.4039C338.862 71.5021 337.694 73.3889 336.069 74.833L336.058 74.8017Z" fill="#FF725E"/>
<path d="M341.604 28.6169C341.604 28.7634 331.611 32.5197 319.181 36.9875C306.751 41.4553 296.612 45.0442 296.56 44.9395C296.507 44.8349 306.552 41.0472 318.993 36.5689C331.433 32.0907 341.551 28.4809 341.604 28.6169Z" fill="#263238"/>
<path d="M353.469 30.5421C353.515 30.6329 353.554 30.7274 353.584 30.8246C353.668 31.0339 353.762 31.3059 353.888 31.6408C354.16 32.4046 354.536 33.4614 355.007 34.7797L359.025 46.4776C360.699 51.4372 362.698 57.3175 364.916 63.8466C365.962 67.1216 367.197 70.5326 368.348 74.1215C368.964 75.9709 369.23 77.9189 369.133 79.8658C369.044 80.8783 368.756 81.8633 368.285 82.7641C367.782 83.6619 367.111 84.4542 366.308 85.0974C364.691 86.2774 362.897 87.1922 360.992 87.8074L355.604 89.7431L345.402 93.3948L328.127 99.5472L316.461 103.649L313.322 104.695L312.485 104.967C312.395 105.007 312.3 105.032 312.202 105.04C312.202 105.04 312.286 105.04 312.464 104.915L313.28 104.59L316.419 103.408L328.023 99.1391L345.266 92.8612L355.447 89.1781L360.835 87.2319C362.686 86.6418 364.428 85.7548 365.994 84.6057C366.741 84.0088 367.366 83.2734 367.835 82.4398C368.278 81.6067 368.545 80.6914 368.62 79.7507C368.716 77.8749 368.461 75.9975 367.867 74.2157C366.737 70.6582 365.544 67.2158 364.466 63.9408C362.29 57.4012 360.281 51.5 358.69 46.5404C357.1 41.5808 355.761 37.5943 354.84 34.7902C354.4 33.4195 354.066 32.3523 353.794 31.578L353.542 30.7409C353.511 30.6775 353.486 30.6108 353.469 30.5421Z" fill="#263238"/>
<path d="M324.005 16.1133C324.005 16.1133 323.45 15.8413 322.425 15.4227C320.963 14.8611 319.417 14.5499 317.852 14.502C315.532 14.4224 313.224 14.8584 311.093 15.7785C308.502 16.9242 306.286 18.7773 304.7 21.1252C303.103 23.4664 302.247 26.2331 302.241 29.0668C302.263 31.3893 302.615 33.697 303.287 35.9202C303.832 37.8245 304.397 39.3417 304.773 40.3985C304.995 40.9353 305.177 41.4879 305.317 42.0517C305.02 41.5498 304.771 41.0208 304.574 40.4717C304.145 39.4254 303.528 37.9396 302.921 36.0249C302.176 33.7783 301.771 31.4331 301.718 29.0668C301.69 26.126 302.567 23.2477 304.229 20.8218C305.87 18.3881 308.177 16.4777 310.873 15.3181C313.071 14.393 315.451 13.9849 317.831 14.1253C319.43 14.2068 321.001 14.5791 322.467 15.2239C322.858 15.4047 323.236 15.6145 323.597 15.8517C323.745 15.9171 323.883 16.0054 324.005 16.1133Z" fill="#263238"/>
<path d="M324.486 57.056C324.653 56.9548 324.828 56.8674 325.009 56.7945C325.533 56.5581 326.075 56.3656 326.631 56.219C327.513 55.9587 328.422 55.8041 329.341 55.7586C330.59 55.6915 331.84 55.8802 333.013 56.3132C335.692 57.2548 338.151 59.9858 339.365 63.6374C339.947 65.5971 339.947 67.6837 339.365 69.6433C338.719 71.7703 337.562 73.7066 335.995 75.283L336.058 75.0005C337.45 78.8196 338.967 82.963 340.537 87.2843L340.631 87.5459L340.369 87.6401L337.973 88.4353L332.741 90.1827L332.48 90.2664L332.396 90.0048C330.963 85.673 329.393 81.6342 328.211 77.6686L328.441 77.8465C326.395 77.6766 324.445 76.9088 322.833 75.6388C321.374 74.5152 320.178 73.0869 319.328 71.4535C318.56 70.0049 318.179 68.3836 318.218 66.745C318.267 65.0703 318.685 63.427 319.443 61.9329C320.201 60.4387 321.28 59.1307 322.603 58.1024C323.147 57.6604 323.758 57.3073 324.413 57.056C323.822 57.4067 323.249 57.7874 322.697 58.1965C321.244 59.4258 320.131 61.0074 319.464 62.7899C318.891 64.1341 318.623 65.5883 318.679 67.0482C318.735 68.5081 319.114 69.9374 319.788 71.2337C320.624 72.8051 321.791 74.176 323.209 75.2516C324.748 76.4588 326.607 77.1866 328.556 77.3443H328.734L328.786 77.5012C329.937 81.3935 331.517 85.4637 332.972 89.8164L332.626 89.649L337.858 87.9017L340.244 87.096L340.076 87.4517C338.517 83.1304 337.01 78.9765 335.629 75.1574V75.0005L335.755 74.8749C337.276 73.3639 338.41 71.5083 339.061 69.4654C339.616 67.5909 339.616 65.5957 339.061 63.7211C337.921 60.2055 335.566 57.5374 333.013 56.5957C331.883 56.1599 330.677 55.957 329.466 55.9993C328.563 56.02 327.664 56.1428 326.788 56.3655C325.229 56.7526 324.496 57.1084 324.486 57.056Z" fill="#263238"/>
<path d="M292.144 359.172L187.627 358.69C181.591 358.657 175.815 356.23 171.568 351.941C167.32 347.652 164.949 341.853 164.974 335.818L166.083 73.8077C166.095 70.8174 166.697 67.8588 167.853 65.1011C169.01 62.3433 170.698 59.8406 172.822 57.7358C174.947 55.631 177.465 53.9655 180.233 52.8345C183.001 51.7035 185.965 51.1292 188.956 51.1443L293.462 51.6256C299.498 51.6561 305.275 54.0809 309.524 58.3675C313.774 62.6541 316.148 68.452 316.126 74.4878L315.017 336.487C315.004 339.479 314.403 342.438 313.247 345.197C312.091 347.956 310.402 350.46 308.278 352.567C306.155 354.673 303.637 356.34 300.868 357.474C298.1 358.607 295.135 359.184 292.144 359.172Z" fill="#455A64"/>
<path d="M293.305 60.6345H273.049C272.388 60.6467 271.736 60.7891 271.13 61.0534C270.524 61.3177 269.976 61.6988 269.517 62.1749C269.059 62.651 268.698 63.2128 268.457 63.8282C268.215 64.4436 268.097 65.1005 268.11 65.7615V69.4341C268.122 70.0945 268.004 70.7509 267.763 71.3657C267.521 71.9805 267.161 72.5416 266.702 73.0169C266.243 73.4922 265.695 73.8723 265.089 74.1354C264.484 74.3986 263.832 74.5397 263.171 74.5506L223.683 74.3727C222.347 74.3371 221.08 73.7727 220.16 72.8036C219.24 71.8345 218.742 70.5398 218.776 69.2039V65.5313C218.81 64.1971 218.313 62.904 217.395 61.9351C216.477 60.9663 215.213 60.4008 213.879 60.3624H206.753L189.018 60.2787C184.8 60.2536 180.743 61.901 177.737 64.8603C174.731 67.8196 173.02 71.8495 172.978 76.0677L171.932 331.81C171.922 333.903 172.325 335.977 173.117 337.914C173.909 339.851 175.074 341.613 176.547 343.1C178.02 344.586 179.772 345.768 181.701 346.578C183.631 347.388 185.701 347.809 187.794 347.819L292.092 348.3C294.186 348.31 296.261 347.907 298.2 347.115C300.138 346.322 301.901 345.156 303.389 343.682C304.876 342.208 306.059 340.455 306.869 338.524C307.679 336.593 308.101 334.522 308.111 332.428L309.157 76.6851C309.182 72.4549 307.527 68.388 304.554 65.3782C301.582 62.3684 297.535 60.6621 293.305 60.6345Z" fill="white"/>
<path d="M279.274 314.18L201.721 313.845C200.915 313.845 200.267 312.966 200.277 311.899L200.361 291.61C200.361 290.564 201.02 289.664 201.826 289.664L279.379 290.02C279.826 290.097 280.225 290.344 280.494 290.708C280.763 291.073 280.881 291.527 280.823 291.977L280.75 312.244C280.75 313.322 280.08 314.19 279.274 314.18Z" fill="#FF725E"/>
<path d="M226.723 299.257C226.688 298.964 226.548 298.737 226.302 298.575C226.055 298.414 225.753 298.333 225.395 298.333C225.133 298.333 224.904 298.375 224.708 298.46C224.513 298.545 224.361 298.661 224.251 298.809C224.144 298.958 224.09 299.126 224.09 299.315C224.09 299.472 224.127 299.608 224.202 299.722C224.279 299.833 224.377 299.927 224.497 300.002C224.616 300.075 224.741 300.136 224.872 300.184C225.003 300.23 225.123 300.268 225.233 300.296L225.834 300.458C225.988 300.499 226.159 300.554 226.348 300.626C226.538 300.697 226.72 300.794 226.893 300.917C227.069 301.038 227.213 301.194 227.327 301.385C227.44 301.576 227.497 301.809 227.497 302.087C227.497 302.406 227.413 302.695 227.246 302.953C227.08 303.211 226.838 303.416 226.518 303.568C226.2 303.72 225.814 303.796 225.36 303.796C224.937 303.796 224.57 303.728 224.26 303.591C223.952 303.454 223.709 303.264 223.532 303.019C223.357 302.775 223.258 302.491 223.235 302.168H223.974C223.993 302.391 224.068 302.576 224.199 302.722C224.332 302.866 224.5 302.974 224.702 303.045C224.906 303.115 225.125 303.149 225.36 303.149C225.634 303.149 225.879 303.105 226.096 303.016C226.314 302.926 226.486 302.801 226.613 302.641C226.74 302.479 226.804 302.291 226.804 302.075C226.804 301.879 226.749 301.719 226.639 301.596C226.53 301.473 226.385 301.372 226.206 301.295C226.027 301.218 225.834 301.151 225.626 301.093L224.898 300.885C224.436 300.753 224.07 300.563 223.801 300.317C223.531 300.07 223.397 299.748 223.397 299.349C223.397 299.018 223.486 298.729 223.665 298.483C223.846 298.235 224.089 298.042 224.393 297.906C224.699 297.767 225.041 297.698 225.418 297.698C225.799 297.698 226.138 297.766 226.434 297.903C226.731 298.037 226.966 298.222 227.139 298.457C227.314 298.692 227.406 298.959 227.416 299.257H226.723ZM229.39 297.778V303.692H228.674V297.778H229.39ZM235.516 297.778V303.692H234.823L231.6 299.049H231.542V303.692H230.826V297.778H231.519L234.753 302.433H234.811V297.778H235.516ZM240.991 299.626C240.928 299.432 240.844 299.258 240.74 299.104C240.638 298.948 240.516 298.815 240.373 298.705C240.233 298.596 240.073 298.512 239.894 298.454C239.715 298.396 239.518 298.368 239.305 298.368C238.954 298.368 238.636 298.458 238.349 298.639C238.062 298.82 237.834 299.087 237.665 299.439C237.495 299.791 237.411 300.223 237.411 300.735C237.411 301.247 237.496 301.68 237.668 302.032C237.839 302.384 238.071 302.651 238.363 302.832C238.656 303.013 238.985 303.103 239.351 303.103C239.69 303.103 239.988 303.031 240.246 302.887C240.506 302.74 240.708 302.534 240.853 302.269C240.999 302.001 241.072 301.686 241.072 301.324L241.291 301.371H239.513V300.735H241.765V301.371C241.765 301.858 241.661 302.281 241.453 302.641C241.247 303.001 240.962 303.28 240.598 303.478C240.236 303.675 239.821 303.773 239.351 303.773C238.827 303.773 238.367 303.65 237.971 303.403C237.576 303.157 237.268 302.807 237.047 302.352C236.827 301.898 236.718 301.359 236.718 300.735C236.718 300.268 236.78 299.847 236.905 299.473C237.032 299.098 237.211 298.779 237.442 298.515C237.673 298.251 237.947 298.049 238.262 297.908C238.578 297.768 238.926 297.698 239.305 297.698C239.617 297.698 239.907 297.745 240.177 297.839C240.448 297.932 240.69 298.063 240.902 298.235C241.115 298.404 241.293 298.607 241.436 298.844C241.578 299.079 241.676 299.34 241.73 299.626H240.991ZM249.159 297.778H249.875V301.694C249.875 302.098 249.78 302.459 249.589 302.777C249.401 303.092 249.134 303.342 248.79 303.525C248.445 303.706 248.041 303.796 247.577 303.796C247.113 303.796 246.709 303.706 246.364 303.525C246.019 303.342 245.752 303.092 245.561 302.777C245.373 302.459 245.278 302.098 245.278 301.694V297.778H245.994V301.636C245.994 301.925 246.058 302.182 246.185 302.407C246.312 302.63 246.493 302.807 246.728 302.936C246.965 303.063 247.248 303.126 247.577 303.126C247.906 303.126 248.189 303.063 248.426 302.936C248.663 302.807 248.844 302.63 248.969 302.407C249.096 302.182 249.159 301.925 249.159 301.636V297.778ZM251.305 303.692V297.778H253.304C253.767 297.778 254.147 297.862 254.441 298.03C254.738 298.195 254.957 298.42 255.1 298.702C255.242 298.985 255.313 299.301 255.313 299.65C255.313 299.998 255.242 300.315 255.1 300.6C254.959 300.884 254.742 301.112 254.447 301.281C254.152 301.449 253.775 301.532 253.315 301.532H251.883V300.897H253.292C253.61 300.897 253.865 300.842 254.057 300.732C254.25 300.623 254.389 300.474 254.476 300.288C254.564 300.099 254.609 299.886 254.609 299.65C254.609 299.413 254.564 299.201 254.476 299.014C254.389 298.828 254.249 298.681 254.054 298.575C253.86 298.468 253.602 298.414 253.28 298.414H252.021V303.692H251.305Z" fill="#E8E8E3"/>
<path d="M217.189 135.813L190.278 135.691L190.256 140.63L217.167 140.752L217.189 135.813Z" fill="#FF725E"/>
<path opacity="0.1" d="M217.189 135.813L190.278 135.691L190.256 140.63L217.167 140.752L217.189 135.813Z" fill="black"/>
<path d="M296.078 166.135C296.289 166.114 296.497 166.065 296.695 165.989C296.985 165.876 297.237 165.683 297.422 165.433C297.607 165.183 297.718 164.886 297.742 164.576C297.742 162.913 297.742 160.485 297.742 157.367C297.742 155.808 297.742 154.061 297.742 152.136C297.742 151.665 297.742 151.173 297.742 150.681C297.81 150.204 297.706 149.718 297.449 149.31C297.305 149.115 297.117 148.956 296.901 148.845C296.685 148.734 296.446 148.675 296.204 148.672H294.571H279.452L191.937 148.348C191.713 148.344 191.492 148.394 191.291 148.495C191.091 148.595 190.918 148.742 190.787 148.923C190.534 149.333 190.437 149.819 190.514 150.294C190.514 151.34 190.514 152.387 190.514 153.433C190.514 155.526 190.514 157.618 190.514 159.711C190.514 160.757 190.514 161.804 190.514 162.85C190.471 163.337 190.471 163.827 190.514 164.315C190.569 164.524 190.672 164.717 190.813 164.88C190.955 165.044 191.132 165.172 191.331 165.256C191.537 165.338 191.758 165.378 191.979 165.372H197.305L220.544 165.497L259.886 165.738L286.41 165.947L293.619 166.031H295.492C295.921 166.031 296.13 166.031 296.13 166.031H295.492H293.619H286.41H259.886L220.544 165.905L197.305 165.811H191.979C191.686 165.823 191.394 165.773 191.121 165.665C190.846 165.547 190.601 165.368 190.405 165.141C190.209 164.915 190.068 164.646 189.991 164.357C189.931 164.082 189.91 163.8 189.929 163.52V162.745C189.929 161.699 189.929 160.653 189.929 159.606C189.929 157.514 189.929 155.421 189.929 153.328C189.929 152.282 189.929 151.236 189.929 150.189C189.909 149.911 189.909 149.631 189.929 149.352C189.968 149.045 190.087 148.752 190.274 148.505C190.454 148.252 190.693 148.047 190.97 147.907C191.247 147.766 191.554 147.695 191.864 147.699L279.379 148.18L294.498 148.285H296.13C296.418 148.285 296.701 148.355 296.956 148.488C297.211 148.621 297.43 148.813 297.595 149.049C297.89 149.504 298.009 150.051 297.93 150.587C297.93 151.079 297.93 151.571 297.93 152.041C297.93 153.946 297.93 155.693 297.93 157.273C297.93 160.412 297.857 162.818 297.836 164.493C297.81 164.814 297.693 165.122 297.499 165.38C297.304 165.638 297.04 165.834 296.737 165.947C296.539 166.07 296.311 166.135 296.078 166.135Z" fill="#E0E0E0"/>
<path d="M247.581 153.6H198.362V158.215H247.581V153.6Z" fill="#FF725E"/>
<path opacity="0.2" d="M247.581 153.6H198.362V158.215H247.581V153.6Z" fill="white"/>
<path d="M217.006 180.867L190.095 180.744L190.073 185.683L216.984 185.805L217.006 180.867Z" fill="#FF725E"/>
<path opacity="0.1" d="M217.006 180.867L190.095 180.744L190.073 185.683L216.984 185.805L217.006 180.867Z" fill="black"/>
<path d="M295.398 211.19C295.609 211.164 295.819 211.126 296.026 211.075C296.318 210.982 296.587 210.827 296.814 210.622C297.042 210.416 297.222 210.164 297.344 209.882C297.509 209.46 297.573 209.005 297.533 208.553C297.533 208.051 297.533 207.507 297.533 206.9C297.533 205.686 297.533 204.305 297.533 202.715V196.071C297.582 195.59 297.476 195.105 297.229 194.689C296.971 194.263 296.565 193.947 296.089 193.8C295.567 193.707 295.037 193.679 294.509 193.716H279.452L192.241 193.392C191.772 193.393 191.319 193.565 190.967 193.874C190.615 194.184 190.387 194.612 190.326 195.077C190.326 196.071 190.326 197.169 190.326 198.216C190.326 200.308 190.326 202.401 190.326 204.494C190.326 205.54 190.326 206.586 190.326 207.633C190.287 208.122 190.308 208.613 190.389 209.097C190.52 209.522 190.788 209.89 191.153 210.144C191.539 210.389 191.993 210.506 192.45 210.479H193.905H196.928L220.084 210.594L259.289 210.834L285.719 211.044L292.908 211.127H285.719H259.289L220.063 211.085L196.908 211.002H192.356C191.79 211.035 191.228 210.885 190.755 210.573C190.279 210.243 189.932 209.759 189.772 209.202C189.678 208.67 189.65 208.129 189.688 207.591C189.688 206.544 189.688 205.498 189.688 204.452C189.688 202.359 189.688 200.266 189.688 198.174C189.688 197.127 189.688 196.081 189.688 195.035C189.764 194.436 190.056 193.887 190.509 193.488C190.961 193.089 191.544 192.869 192.147 192.869L279.358 193.35L294.414 193.465C294.975 193.431 295.538 193.47 296.089 193.58C296.632 193.758 297.091 194.131 297.376 194.627C297.646 195.088 297.763 195.623 297.71 196.154C297.71 196.646 297.71 197.127 297.71 197.609C297.71 199.503 297.71 201.239 297.71 202.84C297.71 204.441 297.71 205.791 297.71 207.026C297.71 207.622 297.71 208.177 297.71 208.689C297.748 209.157 297.673 209.627 297.491 210.06C297.355 210.349 297.158 210.605 296.915 210.811C296.671 211.016 296.385 211.167 296.078 211.253C295.849 211.272 295.619 211.25 295.398 211.19Z" fill="#E0E0E0"/>
<path d="M216.803 227.877L189.892 227.754L189.87 232.693L216.781 232.815L216.803 227.877Z" fill="#FF725E"/>
<path opacity="0.1" d="M216.803 227.877L189.892 227.754L189.87 232.693L216.781 232.815L216.803 227.877Z" fill="black"/>
<path d="M295.189 258.181C295.4 258.156 295.61 258.117 295.816 258.065C296.107 257.973 296.375 257.82 296.603 257.616C296.83 257.412 297.011 257.162 297.135 256.883C297.299 256.46 297.363 256.006 297.323 255.554C297.323 255.042 297.323 254.508 297.323 253.891C297.323 252.687 297.323 251.296 297.323 249.705V243.061C297.373 242.58 297.267 242.096 297.02 241.68C296.755 241.261 296.351 240.95 295.879 240.801C295.358 240.704 294.828 240.673 294.299 240.707H279.243L192.032 240.383C191.562 240.384 191.11 240.555 190.757 240.865C190.405 241.175 190.178 241.602 190.117 242.067C190.117 243.113 190.117 244.16 190.117 245.206C190.117 247.299 190.117 249.391 190.117 251.484C190.117 252.53 190.117 253.577 190.117 254.623C190.078 255.109 190.099 255.597 190.18 256.077C190.305 256.504 190.575 256.874 190.943 257.124C191.327 257.375 191.783 257.492 192.241 257.459H196.792L219.947 257.584L259.153 257.825L285.583 258.034L292.772 258.118H285.583H259.153L219.947 258.003L196.792 257.909H192.241C191.674 257.947 191.111 257.796 190.64 257.48C190.164 257.15 189.816 256.665 189.656 256.109C189.563 255.577 189.534 255.036 189.573 254.497C189.573 253.451 189.573 252.405 189.573 251.359C189.573 249.266 189.573 247.173 189.573 245.081C189.573 244.034 189.573 242.988 189.573 241.889C189.647 241.292 189.936 240.742 190.387 240.343C190.838 239.944 191.419 239.724 192.021 239.723L279.232 240.205L294.289 240.32C294.849 240.285 295.412 240.324 295.963 240.435C296.506 240.613 296.965 240.985 297.25 241.481C297.521 241.942 297.638 242.477 297.585 243.009C297.585 243.501 297.585 243.992 297.585 244.463C297.585 246.357 297.585 248.094 297.585 249.695C297.585 251.296 297.585 252.645 297.585 253.88C297.585 254.477 297.585 255.031 297.585 255.544C297.625 256.012 297.549 256.482 297.365 256.914C297.229 257.203 297.033 257.459 296.789 257.665C296.545 257.871 296.26 258.022 295.952 258.107C295.707 258.191 295.445 258.216 295.189 258.181Z" fill="#E0E0E0"/>
<path d="M246.531 199.96L197.312 199.736L197.291 204.351L246.51 204.574L246.531 199.96Z" fill="#FF725E"/>
<path opacity="0.2" d="M246.531 199.96L197.312 199.736L197.291 204.351L246.51 204.574L246.531 199.96Z" fill="white"/>
<path d="M201.763 249.642C201.732 250.063 201.578 250.466 201.32 250.8C201.063 251.135 200.713 251.386 200.314 251.523C199.915 251.66 199.484 251.677 199.075 251.572C198.667 251.467 198.298 251.244 198.015 250.931C197.732 250.618 197.547 250.229 197.482 249.812C197.418 249.395 197.478 248.968 197.654 248.585C197.831 248.201 198.116 247.878 198.474 247.655C198.832 247.432 199.248 247.319 199.67 247.33C200.253 247.363 200.799 247.624 201.191 248.056C201.583 248.489 201.788 249.059 201.763 249.642Z" fill="#FF725E"/>
<path d="M208.428 249.674C208.448 249.969 208.408 250.265 208.309 250.543C208.21 250.822 208.055 251.078 207.854 251.294C207.652 251.51 207.408 251.683 207.137 251.8C206.866 251.918 206.573 251.979 206.277 251.979C205.982 251.979 205.689 251.918 205.418 251.8C205.147 251.683 204.903 251.51 204.701 251.294C204.5 251.078 204.344 250.822 204.246 250.543C204.147 250.265 204.107 249.969 204.127 249.674C204.107 249.379 204.147 249.083 204.246 248.804C204.344 248.525 204.5 248.27 204.701 248.054C204.903 247.837 205.147 247.665 205.418 247.547C205.689 247.429 205.982 247.368 206.277 247.368C206.573 247.368 206.866 247.429 207.137 247.547C207.408 247.665 207.652 247.837 207.854 248.054C208.055 248.27 208.21 248.525 208.309 248.804C208.408 249.083 208.448 249.379 208.428 249.674Z" fill="#FF725E"/>
<path d="M215.103 249.705C215.072 250.126 214.918 250.529 214.661 250.863C214.403 251.197 214.053 251.449 213.654 251.586C213.255 251.723 212.824 251.74 212.416 251.635C212.007 251.53 211.638 251.307 211.355 250.994C211.072 250.681 210.887 250.292 210.823 249.875C210.759 249.458 210.819 249.031 210.995 248.647C211.171 248.264 211.456 247.941 211.814 247.718C212.173 247.495 212.588 247.382 213.01 247.393C213.592 247.428 214.137 247.69 214.528 248.122C214.92 248.554 215.126 249.123 215.103 249.705Z" fill="#FF725E"/>
<path d="M221.768 249.737C221.738 250.158 221.584 250.56 221.326 250.894C221.069 251.229 220.719 251.48 220.32 251.617C219.921 251.755 219.49 251.772 219.081 251.666C218.673 251.561 218.304 251.338 218.021 251.025C217.737 250.712 217.552 250.323 217.488 249.906C217.424 249.489 217.484 249.062 217.66 248.679C217.837 248.295 218.122 247.972 218.48 247.749C218.838 247.526 219.254 247.413 219.676 247.424C220.258 247.459 220.803 247.721 221.194 248.154C221.585 248.586 221.791 249.154 221.768 249.737Z" fill="#FF725E"/>
<path d="M228.433 249.758C228.404 250.179 228.252 250.583 227.996 250.919C227.739 251.254 227.39 251.507 226.991 251.646C226.592 251.785 226.161 251.803 225.751 251.699C225.342 251.595 224.972 251.373 224.688 251.06C224.404 250.748 224.218 250.358 224.153 249.941C224.088 249.523 224.147 249.096 224.324 248.712C224.5 248.328 224.785 248.004 225.143 247.781C225.502 247.557 225.918 247.444 226.341 247.456C226.921 247.491 227.464 247.751 227.855 248.181C228.246 248.611 228.453 249.177 228.433 249.758Z" fill="#FF725E"/>
<path d="M235.109 249.789C235.081 250.208 234.93 250.61 234.676 250.945C234.422 251.28 234.076 251.533 233.68 251.674C233.284 251.814 232.855 251.836 232.447 251.736C232.038 251.636 231.668 251.419 231.382 251.112C231.095 250.804 230.905 250.42 230.834 250.006C230.763 249.591 230.815 249.165 230.983 248.78C231.151 248.395 231.429 248.067 231.78 247.838C232.132 247.608 232.544 247.486 232.964 247.487C233.553 247.509 234.11 247.763 234.512 248.195C234.914 248.626 235.129 249.2 235.109 249.789Z" fill="#FF725E"/>
<path d="M241.774 249.82C241.794 250.115 241.754 250.411 241.655 250.69C241.557 250.969 241.402 251.224 241.2 251.441C240.998 251.657 240.754 251.829 240.483 251.947C240.212 252.065 239.919 252.126 239.624 252.126C239.328 252.126 239.035 252.065 238.764 251.947C238.493 251.829 238.249 251.657 238.047 251.441C237.846 251.224 237.691 250.969 237.592 250.69C237.493 250.411 237.453 250.115 237.473 249.82C237.453 249.525 237.493 249.229 237.592 248.951C237.691 248.672 237.846 248.416 238.047 248.2C238.249 247.984 238.493 247.812 238.764 247.694C239.035 247.576 239.328 247.515 239.624 247.515C239.919 247.515 240.212 247.576 240.483 247.694C240.754 247.812 240.998 247.984 241.2 248.2C241.402 248.416 241.557 248.672 241.655 248.951C241.754 249.229 241.794 249.525 241.774 249.82Z" fill="#FF725E"/>
<path d="M248.439 249.852C248.411 250.271 248.26 250.673 248.006 251.008C247.752 251.343 247.406 251.596 247.01 251.737C246.614 251.877 246.185 251.899 245.777 251.799C245.368 251.699 244.998 251.482 244.712 251.175C244.425 250.867 244.235 250.483 244.164 250.068C244.093 249.654 244.145 249.228 244.313 248.843C244.481 248.458 244.759 248.13 245.111 247.9C245.462 247.671 245.874 247.549 246.294 247.55C246.884 247.572 247.44 247.826 247.842 248.258C248.244 248.689 248.459 249.262 248.439 249.852Z" fill="#FF725E"/>
<path d="M255.104 249.883C255.075 250.304 254.923 250.708 254.667 251.044C254.41 251.38 254.061 251.633 253.662 251.772C253.263 251.91 252.832 251.929 252.422 251.825C252.013 251.72 251.643 251.498 251.359 251.186C251.075 250.873 250.889 250.484 250.824 250.066C250.759 249.649 250.818 249.221 250.994 248.837C251.171 248.453 251.456 248.13 251.814 247.906C252.173 247.683 252.589 247.57 253.012 247.581C253.592 247.616 254.135 247.877 254.526 248.307C254.917 248.737 255.124 249.302 255.104 249.883Z" fill="#FF725E"/>
<g opacity="0.2">
<path d="M201.763 249.642C201.732 250.063 201.578 250.466 201.32 250.8C201.063 251.135 200.713 251.386 200.314 251.523C199.915 251.66 199.484 251.677 199.075 251.572C198.667 251.467 198.298 251.244 198.015 250.931C197.732 250.618 197.547 250.229 197.482 249.812C197.418 249.395 197.478 248.968 197.654 248.585C197.831 248.201 198.116 247.878 198.474 247.655C198.832 247.432 199.248 247.319 199.67 247.33C200.253 247.363 200.799 247.624 201.191 248.056C201.583 248.489 201.788 249.059 201.763 249.642Z" fill="white"/>
<path d="M208.428 249.674C208.448 249.969 208.408 250.265 208.309 250.544C208.21 250.822 208.055 251.078 207.854 251.294C207.652 251.51 207.408 251.683 207.137 251.801C206.866 251.919 206.573 251.979 206.277 251.979C205.982 251.979 205.689 251.919 205.418 251.801C205.147 251.683 204.903 251.51 204.701 251.294C204.5 251.078 204.344 250.822 204.246 250.544C204.147 250.265 204.107 249.969 204.127 249.674C204.107 249.379 204.147 249.083 204.246 248.804C204.344 248.525 204.5 248.27 204.701 248.054C204.903 247.838 205.147 247.665 205.418 247.547C205.689 247.429 205.982 247.368 206.277 247.368C206.573 247.368 206.866 247.429 207.137 247.547C207.408 247.665 207.652 247.838 207.854 248.054C208.055 248.27 208.21 248.525 208.309 248.804C208.408 249.083 208.448 249.379 208.428 249.674Z" fill="white"/>
<path d="M215.103 249.705C215.073 250.126 214.919 250.529 214.661 250.863C214.404 251.197 214.054 251.449 213.655 251.586C213.256 251.723 212.825 251.74 212.416 251.635C212.008 251.53 211.639 251.307 211.356 250.994C211.072 250.681 210.887 250.292 210.823 249.875C210.759 249.458 210.819 249.031 210.995 248.647C211.172 248.264 211.457 247.941 211.815 247.718C212.173 247.495 212.589 247.382 213.011 247.393C213.593 247.428 214.138 247.69 214.529 248.122C214.92 248.554 215.126 249.123 215.103 249.705Z" fill="white"/>
<path d="M221.768 249.737C221.738 250.158 221.584 250.56 221.326 250.894C221.069 251.229 220.719 251.48 220.32 251.617C219.921 251.755 219.49 251.772 219.081 251.666C218.673 251.561 218.304 251.338 218.021 251.025C217.737 250.712 217.552 250.323 217.488 249.906C217.424 249.489 217.484 249.062 217.66 248.679C217.837 248.295 218.122 247.972 218.48 247.749C218.838 247.526 219.254 247.413 219.676 247.424C220.258 247.459 220.803 247.721 221.194 248.154C221.585 248.586 221.791 249.154 221.768 249.737Z" fill="white"/>
<path d="M228.433 249.758C228.404 250.179 228.252 250.583 227.996 250.919C227.739 251.254 227.39 251.507 226.991 251.646C226.592 251.785 226.161 251.803 225.751 251.699C225.342 251.595 224.972 251.373 224.688 251.06C224.404 250.748 224.218 250.358 224.153 249.941C224.088 249.523 224.147 249.096 224.324 248.712C224.5 248.328 224.785 248.004 225.143 247.781C225.502 247.557 225.918 247.444 226.341 247.456C226.921 247.491 227.464 247.751 227.855 248.181C228.246 248.611 228.453 249.177 228.433 249.758Z" fill="white"/>
<path d="M235.109 249.789C235.081 250.208 234.93 250.61 234.676 250.945C234.422 251.28 234.076 251.533 233.68 251.674C233.284 251.814 232.855 251.836 232.447 251.736C232.038 251.636 231.668 251.419 231.382 251.112C231.095 250.804 230.905 250.42 230.834 250.006C230.763 249.591 230.815 249.165 230.983 248.78C231.151 248.395 231.429 248.067 231.78 247.838C232.132 247.608 232.544 247.486 232.964 247.487C233.553 247.509 234.11 247.763 234.512 248.195C234.914 248.626 235.129 249.2 235.109 249.789Z" fill="white"/>
<path d="M241.774 249.82C241.794 250.115 241.754 250.411 241.655 250.69C241.557 250.969 241.402 251.224 241.2 251.441C240.998 251.657 240.754 251.829 240.483 251.947C240.212 252.065 239.919 252.126 239.624 252.126C239.328 252.126 239.035 252.065 238.764 251.947C238.493 251.829 238.249 251.657 238.047 251.441C237.846 251.224 237.691 250.969 237.592 250.69C237.493 250.411 237.453 250.115 237.473 249.82C237.453 249.525 237.493 249.229 237.592 248.951C237.691 248.672 237.846 248.416 238.047 248.2C238.249 247.984 238.493 247.812 238.764 247.694C239.035 247.576 239.328 247.515 239.624 247.515C239.919 247.515 240.212 247.576 240.483 247.694C240.754 247.812 240.998 247.984 241.2 248.2C241.402 248.416 241.557 248.672 241.655 248.951C241.754 249.229 241.794 249.525 241.774 249.82Z" fill="white"/>
<path d="M248.439 249.852C248.411 250.271 248.26 250.673 248.006 251.008C247.752 251.343 247.406 251.596 247.01 251.737C246.614 251.877 246.185 251.899 245.777 251.799C245.368 251.699 244.998 251.482 244.712 251.175C244.425 250.867 244.235 250.483 244.164 250.068C244.093 249.654 244.145 249.228 244.313 248.843C244.481 248.458 244.759 248.13 245.111 247.9C245.462 247.671 245.874 247.549 246.294 247.55C246.884 247.572 247.44 247.826 247.842 248.258C248.244 248.689 248.459 249.262 248.439 249.852Z" fill="white"/>
<path d="M255.104 249.883C255.075 250.305 254.923 250.708 254.667 251.044C254.41 251.38 254.061 251.633 253.662 251.772C253.263 251.911 252.832 251.929 252.422 251.825C252.013 251.721 251.643 251.498 251.359 251.186C251.075 250.873 250.889 250.484 250.824 250.067C250.759 249.649 250.818 249.222 250.994 248.838C251.171 248.454 251.456 248.13 251.814 247.906C252.173 247.683 252.589 247.57 253.012 247.581C253.592 247.616 254.135 247.877 254.526 248.307C254.917 248.737 255.124 249.302 255.104 249.883Z" fill="white"/>
</g>
<path d="M245.635 98.8358C246.362 98.5157 246.978 97.9889 247.408 97.321C247.838 96.6531 248.062 95.8736 248.052 95.0795C248.079 94.5632 248.001 94.0469 247.822 93.5618C247.643 93.0768 247.367 92.6333 247.011 92.2583C246.655 91.8833 246.227 91.5847 245.752 91.3806C245.277 91.1765 244.765 91.0713 244.248 91.0713C243.731 91.0713 243.22 91.1765 242.745 91.3806C242.27 91.5847 241.842 91.8833 241.486 92.2583C241.13 92.6333 240.854 93.0768 240.675 93.5618C240.496 94.0469 240.418 94.5632 240.445 95.0795C240.429 95.8816 240.651 96.6704 241.083 97.3464C241.515 98.0224 242.138 98.5552 242.873 98.8776C237.013 99.7565 237.275 106.118 237.275 106.118L251.128 106.181C251.128 106.181 251.452 99.7042 245.635 98.8358Z" fill="#FF725E"/>
<path opacity="0.1" d="M245.635 98.8358C246.362 98.5157 246.978 97.9889 247.408 97.321C247.838 96.6531 248.062 95.8736 248.052 95.0795C248.079 94.5632 248.001 94.0469 247.822 93.5618C247.643 93.0768 247.367 92.6333 247.011 92.2583C246.655 91.8833 246.227 91.5847 245.752 91.3806C245.277 91.1765 244.765 91.0713 244.248 91.0713C243.731 91.0713 243.22 91.1765 242.745 91.3806C242.27 91.5847 241.842 91.8833 241.486 92.2583C241.13 92.6333 240.854 93.0768 240.675 93.5618C240.496 94.0469 240.418 94.5632 240.445 95.0795C240.429 95.8816 240.651 96.6704 241.083 97.3464C241.515 98.0224 242.138 98.5552 242.873 98.8776C237.013 99.7565 237.275 106.118 237.275 106.118L251.128 106.181C251.128 106.181 251.452 99.7042 245.635 98.8358Z" fill="black"/>
<path d="M268.146 110.284L218.771 110.06L218.744 115.961L268.119 116.185L268.146 110.284Z" fill="#FF725E"/>
<path opacity="0.2" d="M268.146 110.284L218.771 110.06L218.744 115.961L268.119 116.185L268.146 110.284Z" fill="white"/>
<path d="M86.6253 140.867H86.1335L84.7105 140.971C83.9404 141.017 83.1747 141.119 82.4191 141.275C81.9297 141.343 81.4442 141.438 80.9647 141.557L79.3429 142.007C76.5825 142.854 73.9781 144.144 71.6315 145.826C68.5311 148.077 65.9422 150.958 64.0352 154.28C62.9143 156.196 62.0223 158.236 61.3775 160.36C60.7 162.667 60.3099 165.05 60.2161 167.454C60.1537 168.716 60.1747 169.982 60.2789 171.241C60.2789 171.88 60.4567 172.518 60.5404 173.167C60.6108 173.82 60.7333 174.468 60.9067 175.102C61.8475 179.301 63.7566 183.222 66.4816 186.551C69.2065 189.881 72.672 192.528 76.6015 194.281C79.4455 195.509 82.4938 196.193 85.5894 196.301C88.7867 196.477 91.9872 196.018 95.0063 194.951L95.9271 194.606H96.0527L96.1573 194.669L109.351 201.365L108.964 201.7C107.552 197.326 106.192 193.089 104.873 189.018V188.861L104.988 188.746C108.189 185.523 110.565 181.574 111.915 177.237C113.138 173.271 113.494 169.089 112.961 164.974C112.487 161.316 111.311 157.785 109.498 154.573C107.935 151.815 105.919 149.339 103.534 147.249C101.566 145.595 99.3884 144.209 97.0571 143.127C95.2932 142.366 93.456 141.787 91.5744 141.4L89.4818 141.055L87.9646 140.94L87.0438 140.877H86.7299C86.8342 140.865 86.9395 140.865 87.0438 140.877H87.9751L89.4922 140.94L91.5849 141.243C93.4899 141.602 95.3521 142.16 97.1409 142.907C99.5122 143.977 101.729 145.36 103.733 147.019C106.161 149.099 108.22 151.576 109.822 154.343C111.687 157.589 112.899 161.169 113.39 164.88C113.968 169.059 113.636 173.313 112.417 177.352C111.058 181.78 108.646 185.812 105.386 189.102L105.449 188.83C106.767 192.9 108.138 197.138 109.561 201.501L109.76 202.139L109.163 201.836L95.969 195.15H96.1992L95.2575 195.495C92.1802 196.578 88.9205 197.047 85.6627 196.876C82.5003 196.756 79.3883 196.046 76.4864 194.784C70.9511 192.413 66.3457 188.293 63.376 183.054C62.0094 180.635 61.0114 178.025 60.4149 175.312C60.2515 174.661 60.1292 174 60.0487 173.334C59.965 172.675 59.8289 172.026 59.7976 171.377C59.5144 167.654 59.9079 163.911 60.959 160.328C61.6198 158.175 62.5367 156.11 63.6899 154.176C65.6424 150.823 68.2852 147.923 71.4431 145.669C73.8284 143.982 76.4765 142.703 79.2801 141.881L80.9228 141.463C81.4063 141.351 81.8952 141.263 82.3877 141.201C83.1511 141.06 83.9241 140.976 84.7001 140.95L86.1335 140.898C86.2965 140.876 86.4608 140.865 86.6253 140.867Z" fill="#FF725E"/>
<path d="M92.5894 165.267H90.6537L86.4684 159.387V155.526C86.4684 155.526 83.476 155.337 83.8317 160.391C84.1875 165.445 83.8317 164.158 83.8317 164.158C83.8317 164.158 77.4805 164.158 76.9574 164.733C76.4342 165.309 76.4028 171.44 76.3296 174.862C76.2895 175.686 76.5261 176.501 77.002 177.176C77.4778 177.851 78.1655 178.347 78.9558 178.587C79.1774 178.648 79.4061 178.68 79.636 178.681C81.2264 178.681 89.3144 177.394 89.3144 177.394H92.6522L92.5894 165.267Z" fill="#FF725E"/>
<path d="M98.1242 164.231L96.9314 177.456H93.625V164.503L98.1242 164.231Z" fill="#FF725E"/>
<path d="M137.56 433.482V424.536L121.52 424.42L121.384 437.949L122.378 438.023C126.804 438.305 144.895 438.724 147.867 437.803C151.173 436.778 137.56 433.482 137.56 433.482Z" fill="#FF725E"/>
<path d="M148.243 436.966C148.243 437.112 142.237 437.238 134.84 437.238C127.442 437.238 121.437 437.112 121.437 436.966C121.437 436.819 127.442 436.694 134.84 436.694C142.237 436.694 148.243 436.819 148.243 436.966Z" fill="#263238"/>
<path d="M137.843 435.312C137.707 435.239 137.843 434.768 138.167 434.266C138.492 433.764 138.931 433.555 139.036 433.659C139.14 433.764 138.921 434.162 138.607 434.591C138.293 435.02 137.979 435.386 137.843 435.312Z" fill="#263238"/>
<path d="M138.868 435.898C138.722 435.898 138.795 435.312 139.109 434.758C139.423 434.203 139.841 433.869 139.957 433.952C140.072 434.036 139.883 434.507 139.59 434.999C139.297 435.49 139.004 435.951 138.868 435.898Z" fill="#263238"/>
<path d="M126.271 436.924C126.208 436.924 125.967 436.736 125.622 436.338C125.2 435.827 124.731 435.357 124.22 434.936C123.717 434.534 123.118 434.271 122.483 434.172C121.991 434.109 121.677 434.172 121.646 434.109C121.614 434.046 121.918 433.827 122.493 433.785C123.253 433.769 123.994 434.021 124.586 434.496C125.141 434.949 125.609 435.498 125.967 436.118C126.208 436.579 126.333 436.882 126.271 436.924Z" fill="#263238"/>
<path d="M137.895 433.628C137.968 433.753 137.696 434.067 137.236 434.235C136.776 434.402 136.368 434.339 136.347 434.235C136.326 434.13 136.65 433.91 137.048 433.764C137.445 433.617 137.812 433.502 137.895 433.628Z" fill="#263238"/>
<path d="M137.644 432.76C137.644 432.916 137.226 433.042 136.682 433.052C136.137 433.063 135.708 432.937 135.719 432.791C135.729 432.644 136.158 432.508 136.682 432.498C137.205 432.487 137.623 432.613 137.644 432.76Z" fill="#263238"/>
<path d="M177.059 433.482V424.536L161.019 424.42L160.883 437.813L161.877 437.887C166.303 438.169 184.404 438.724 187.365 437.803C190.672 436.778 177.059 433.482 177.059 433.482Z" fill="#FF725E"/>
<path d="M187.742 436.987C187.742 437.133 181.746 437.259 174.338 437.259C166.93 437.259 160.945 437.133 160.945 436.987C160.945 436.84 166.941 436.715 174.338 436.715C181.736 436.715 187.742 436.84 187.742 436.987Z" fill="#263238"/>
<path d="M177.341 435.312C177.216 435.239 177.341 434.768 177.666 434.266C177.99 433.764 178.43 433.555 178.534 433.659C178.639 433.764 178.419 434.162 178.105 434.591C177.791 435.02 177.477 435.386 177.341 435.312Z" fill="#263238"/>
<path d="M178.367 435.898C178.231 435.898 178.294 435.312 178.618 434.758C178.942 434.203 179.35 433.869 179.465 433.952C179.581 434.036 179.382 434.507 179.089 434.999C178.796 435.49 178.513 435.951 178.367 435.898Z" fill="#263238"/>
<path d="M165.769 436.924C165.706 436.924 165.476 436.736 165.12 436.338C164.699 435.827 164.229 435.357 163.718 434.936C163.216 434.534 162.617 434.271 161.981 434.172C161.5 434.109 161.176 434.172 161.144 434.109C161.113 434.046 161.416 433.827 161.992 433.785C162.751 433.769 163.492 434.021 164.084 434.496C164.642 434.946 165.111 435.496 165.466 436.118C165.706 436.579 165.832 436.882 165.769 436.924Z" fill="#263238"/>
<path d="M177.394 433.628C177.467 433.753 177.195 434.067 176.735 434.235C176.274 434.402 175.866 434.339 175.845 434.235C175.824 434.13 176.149 433.91 176.546 433.764C176.944 433.617 177.31 433.502 177.394 433.628Z" fill="#263238"/>
<path d="M177.164 432.76C177.164 432.916 176.745 433.042 176.201 433.052C175.657 433.063 175.238 432.937 175.249 432.791C175.259 432.644 175.678 432.508 176.201 432.498C176.724 432.487 177.164 432.613 177.164 432.76Z" fill="#263238"/>
<path d="M236.155 167.82C235.737 167.391 234.701 167.6 234.701 167.6C234.805 166.998 234.805 166.382 234.701 165.779C234.513 165.194 233.194 165.309 233.194 165.309C233.133 164.815 233.133 164.316 233.194 163.823C233.205 163.713 233.181 163.604 233.127 163.508C233.073 163.412 232.99 163.336 232.891 163.289C232.267 163.035 231.597 162.914 230.924 162.933C230.118 162.358 233.383 157.786 234.596 156.321C235.81 154.856 235.59 153.715 234.513 153.715C233.77 153.715 229.961 158.11 228.789 159.585C227.617 161.061 224.51 165.162 224.405 161.887C224.3 158.612 222.982 156.143 222.156 155.724C221.329 155.306 220.45 156.289 220.9 157.2C221.295 158.234 221.542 159.319 221.632 160.422C221.746 161.301 221.707 162.193 221.517 163.059C221.17 164.67 220.698 166.251 220.105 167.788H220.021C220.021 167.788 197.19 189.688 195.537 191.247C194.062 192.649 164.388 189.583 158.434 188.956C156.411 188.659 154.368 188.52 152.324 188.537C149.739 188.652 149.279 189.018 146.705 189.05C140.205 189.122 133.72 189.692 127.306 190.755C124.402 191.249 121.69 192.531 119.465 194.461C117.239 196.391 115.587 198.895 114.688 201.7C108.692 220.429 95.1109 264.762 92.7148 289.664C90.9042 292.948 89.2696 296.325 87.818 299.782C86.1334 304.365 86.5415 304.522 87.1065 304.627C88.6341 304.909 90.371 296.685 91.0198 298.673C91.6685 300.661 87.7238 308.477 89.3247 308.707C91.4174 309 93.081 300.337 93.2798 299.646C93.4786 298.956 94.5145 299.175 94.3261 299.824C94.0227 300.745 91.0825 310.507 93.1333 310.821C94.2634 310.988 94.3889 308.927 94.3889 308.927C94.3889 308.927 96.4816 299.583 97.4337 299.772C98.3859 299.96 97.3709 305.474 96.8896 307.316C96.4083 309.157 97.078 310.088 98.0615 309.639C98.7312 309.325 100.332 303.727 100.772 301.906C101.211 300.086 102.31 295.042 103.785 297.962C105.26 300.881 107.499 302.576 108.42 302.618C108.628 302.594 108.823 302.508 108.982 302.372C109.14 302.236 109.254 302.056 109.309 301.854C109.365 301.653 109.358 301.44 109.291 301.242C109.224 301.044 109.099 300.871 108.933 300.745C108.141 299.971 107.461 299.091 106.913 298.129C106.425 297.38 106.071 296.551 105.867 295.681C105.445 293.945 105.2 292.171 105.135 290.386L104.967 289.34C107.311 277.736 114.06 243.678 123.801 221.925L127.798 230.149L129.535 236.239L118.883 262.533L164.315 261.937L157.535 235.841L165.769 208.637C174.673 208.836 197.536 209.17 201.344 207.444C206.136 205.351 230.924 174.045 230.924 174.045C232.539 172.79 234.087 171.449 235.559 170.028C235.559 170.028 237.066 168.761 236.155 167.82Z" fill="#FFBE9D"/>
<path d="M116.885 243.103C118.203 238.604 124.973 216.359 124.973 216.359C124.973 216.359 128.3 234.492 127.422 236.678C126.613 238.55 125.658 240.356 124.565 242.077C116.885 253.765 117.89 259.614 117.89 259.614L164.294 258.201C164.399 251.714 160.559 236.626 159.763 234.22C158.968 231.813 161.615 223.934 161.615 223.934C161.615 223.934 166.847 218.608 166.659 215.867C166.559 213.405 166.255 210.955 165.748 208.543L193.999 209.589L193.11 190.441L152.533 186.382C151.121 190.368 138.345 188.411 138.345 188.411C124.555 188.872 123.697 191.404 117.963 195.861C112.229 200.319 102.739 238.572 102.739 238.572L116.885 243.103Z" fill="#FF725E"/>
<path d="M144.32 238.572C143.516 238.716 142.696 238.758 141.882 238.698C140.365 238.698 138.282 238.593 135.991 238.363C133.7 238.133 131.628 237.809 130.153 237.516C129.339 237.411 128.541 237.207 127.777 236.909C128.595 236.909 129.412 236.986 130.215 237.139C131.701 237.327 133.762 237.589 136.043 237.819C138.324 238.049 140.396 238.206 141.892 238.311C142.708 238.321 143.521 238.409 144.32 238.572Z" fill="#263238"/>
<path d="M147.5 234.628C146.696 235.022 145.845 235.314 144.968 235.496C140.794 236.593 136.487 237.104 132.172 237.013C131.279 237.042 130.386 236.958 129.514 236.762C130.395 236.651 131.284 236.605 132.172 236.626C133.815 236.574 136.075 236.459 138.565 236.166C141.055 235.873 143.273 235.454 144.843 235.119C145.715 234.887 146.603 234.722 147.5 234.628Z" fill="#263238"/>
<path d="M163.112 217.029C163.09 217.826 162.982 218.619 162.787 219.393C162.515 220.848 162.097 222.836 161.563 225.012C161.029 227.188 160.517 229.197 160.056 230.558C159.871 231.336 159.597 232.091 159.24 232.807C159.299 232.012 159.446 231.226 159.68 230.463C160.077 228.831 160.527 226.948 161.029 224.886C161.532 222.825 162.013 220.942 162.411 219.31C162.552 218.524 162.788 217.758 163.112 217.029Z" fill="#263238"/>
<path d="M117.376 240.435C114.956 240.061 112.567 239.505 110.23 238.771C107.842 238.213 105.499 237.478 103.22 236.574C105.639 236.954 108.028 237.51 110.366 238.237C112.754 238.794 115.098 239.528 117.376 240.435Z" fill="#263238"/>
<path d="M166.25 208.313C165.856 208.38 165.452 208.38 165.058 208.313C163.965 208.2 162.892 207.944 161.866 207.549C160.155 206.906 158.596 205.911 157.292 204.63C155.987 203.349 154.965 201.809 154.291 200.109C153.546 198.24 153.228 196.227 153.36 194.219C153.406 192.562 153.902 190.949 154.793 189.552C155.42 188.611 156.357 187.919 157.44 187.595C157.73 187.515 158.029 187.477 158.33 187.48C158.539 187.48 158.644 187.48 158.644 187.48C158.644 187.48 158.204 187.48 157.503 187.763C156.509 188.13 155.666 188.819 155.107 189.719C153.684 191.958 153.286 196.05 154.804 199.869C155.51 201.669 156.615 203.286 158.037 204.598C159.202 205.671 160.543 206.535 162.002 207.151C163.372 207.692 164.796 208.082 166.25 208.313Z" fill="#263238"/>
<path d="M190.64 209.212C190.378 206.004 190.295 202.783 190.389 199.565C190.307 196.35 190.405 193.133 190.682 189.929C190.944 193.134 191.028 196.351 190.933 199.565C191.021 202.784 190.923 206.005 190.64 209.212Z" fill="#263238"/>
<path d="M152.261 187.554C152.376 185.22 152.617 182.584 152.617 182.584C152.617 182.584 158.393 181.945 158.738 175.981C159.083 170.017 158.738 156.258 158.738 156.258L148.275 150.901L136.661 160.035L138.45 189.856L149.101 190.536C149.916 190.558 150.706 190.257 151.298 189.698C151.89 189.139 152.237 188.368 152.261 187.554Z" fill="#FFBE9D"/>
<path d="M153.297 171.262C153.297 171.262 153.297 171.377 153.203 171.513C153.125 171.612 153.024 171.69 152.909 171.741C152.795 171.792 152.669 171.815 152.544 171.806C151.874 171.806 151.225 171.032 150.995 170.132C150.886 169.696 150.886 169.239 150.995 168.803C151.017 168.613 151.085 168.431 151.195 168.274C151.305 168.117 151.452 167.989 151.623 167.903C151.764 167.845 151.922 167.845 152.062 167.903C152.167 167.955 152.251 168.04 152.303 168.144C152.376 168.322 152.303 168.437 152.303 168.427C152.303 168.416 152.303 168.322 152.198 168.217C152.144 168.142 152.063 168.09 151.973 168.071C151.882 168.052 151.787 168.067 151.707 168.113C151.578 168.19 151.472 168.299 151.397 168.429C151.322 168.559 151.281 168.706 151.278 168.856C151.19 169.245 151.19 169.649 151.278 170.038C151.487 170.854 152.052 171.513 152.554 171.576C152.652 171.589 152.752 171.582 152.848 171.555C152.943 171.528 153.032 171.482 153.109 171.419C153.234 171.335 153.276 171.252 153.297 171.262Z" fill="#EB996E"/>
<path d="M162.327 153.035C161.521 150.294 158.602 148.934 155.944 148.18C151.895 147.029 147.521 146.527 143.566 147.982C139.611 149.436 134.861 151.989 134.861 156.352C132.528 156.164 131.188 158.204 130.268 160.736C129.679 162.279 129.326 163.902 129.221 165.549C128.928 171.262 127.327 179.152 123.623 183.337C121.531 185.67 118.632 187.282 117.44 190.19C116.393 192.712 116.937 195.704 115.964 198.257C115.096 200.507 113.181 202.108 111.779 204.065C110.351 206.284 109.51 208.831 109.336 211.464C109.162 214.098 109.661 216.733 110.785 219.121C111.917 221.448 113.511 223.52 115.47 225.211C117.429 226.902 119.712 228.176 122.179 228.957C127.067 230.444 132.279 230.494 137.194 229.103C140.883 228.221 144.325 226.515 147.26 224.112C150.263 221.66 152.326 218.244 153.098 214.444C153.841 210.175 152.648 205.833 151.759 201.585C148.976 188.16 149.771 187.459 153.287 174.998C153.37 174.778 153.412 174.548 153.475 174.328C153.538 174.108 153.569 174.004 153.611 173.836C153.711 173.344 153.763 172.843 153.768 172.34C153.254 172.531 152.697 172.571 152.161 172.456C151.626 172.342 151.134 172.076 150.744 171.691C150.353 171.281 150.081 170.773 149.955 170.22C149.83 169.667 149.857 169.091 150.033 168.552C150.279 167.963 150.647 167.432 151.112 166.994C151.577 166.556 152.129 166.221 152.732 166.01C153.894 165.528 155.139 165.277 156.279 164.744C158.696 163.593 160.37 161.207 161.511 158.706C162.448 156.973 162.738 154.963 162.327 153.035Z" fill="#263238"/>
<path d="M153.715 171.545C153.936 171.872 154.119 172.223 154.259 172.591C154.573 173.25 154.992 174.182 155.452 175.259L155.536 175.458H155.316L154.27 175.552C153.548 175.552 152.941 175.688 152.229 175.678C152.168 175.664 152.11 175.635 152.063 175.593C152.015 175.55 151.979 175.497 151.957 175.437C151.926 175.342 151.926 175.239 151.957 175.144C151.982 175.003 152.013 174.864 152.052 174.726L152.24 173.983C152.335 173.487 152.482 173.003 152.679 172.539C152.66 173.044 152.586 173.546 152.46 174.035L152.313 174.778C152.261 175.029 152.167 175.416 152.313 175.385C152.836 175.385 153.579 175.27 154.27 175.228L155.316 175.134L155.18 175.364C154.73 174.318 154.354 173.334 154.134 172.654C153.941 172.307 153.8 171.933 153.715 171.545Z" fill="#FF725E"/>
<path d="M117.889 259.614L164.294 258.201L184.488 337.031L180.773 427.455H156.237L159.24 338.957L141.295 284.077L144.058 430.96L119.26 431.326L116.654 293.264C116.539 289.424 115.284 280.771 115.755 276.962L117.889 259.614Z" fill="#263238"/>
<path d="M147.469 285.196C146.709 285.244 145.947 285.198 145.198 285.06C143.796 284.893 141.881 284.6 139.778 284.181C137.675 283.763 135.792 283.282 134.432 282.894C133.704 282.735 133.001 282.481 132.339 282.141C132.339 281.984 135.75 282.8 139.935 283.648C144.12 284.495 147.49 285.039 147.469 285.196Z" fill="#455A64"/>
<path d="M180.522 422.495C180.522 422.641 174.966 422.767 168.113 422.767C161.259 422.767 155.693 422.641 155.693 422.495C155.693 422.348 161.249 422.223 168.113 422.223C174.977 422.223 180.522 422.338 180.522 422.495Z" fill="#455A64"/>
<path d="M143.838 427.141C143.838 427.298 138.439 427.413 131.784 427.413C125.13 427.413 119.741 427.298 119.741 427.141C119.741 426.984 125.14 426.869 131.784 426.869C138.429 426.869 143.838 426.994 143.838 427.141Z" fill="#455A64"/>
<path d="M140.636 426.764C140.49 426.764 139.841 394.673 139.182 355.091C138.523 315.508 138.136 283.397 138.272 283.397C138.408 283.397 139.077 315.477 139.726 355.08C140.375 394.684 140.793 426.764 140.636 426.764Z" fill="#455A64"/>
<path d="M177.226 422.495C177.215 422.352 177.215 422.209 177.226 422.066V420.81C177.226 419.68 177.31 418.059 177.373 415.997C177.519 411.812 177.729 405.733 177.99 398.283C178.555 383.3 179.35 362.645 180.219 339.846C180.219 339.626 180.219 339.417 180.219 339.229V339.302C174.726 317.329 169.756 297.386 166.146 282.957L161.96 265.892C161.479 263.893 161.113 262.334 160.851 261.246C160.726 260.733 160.642 260.336 160.569 260.032C160.528 259.896 160.504 259.756 160.496 259.614C160.55 259.746 160.592 259.882 160.621 260.022C160.705 260.315 160.809 260.712 160.956 261.215C161.238 262.261 161.647 263.851 162.17 265.839C163.216 269.878 164.691 275.696 166.533 282.863C170.174 297.281 175.196 317.172 180.763 339.176V339.249C180.763 339.438 180.763 339.658 180.763 339.867C179.832 362.666 178.984 383.31 178.367 398.294C178.042 405.754 177.77 411.791 177.582 415.997C177.477 418.09 177.394 419.68 177.341 420.81C177.341 421.344 177.279 421.763 177.268 422.066C177.27 422.21 177.256 422.354 177.226 422.495Z" fill="#455A64"/>
<path d="M169.222 337.387C167.46 337.967 165.644 338.37 163.802 338.59C161.542 338.978 159.617 339.25 158.748 339.292V339.082C159.031 339.166 159.177 339.218 159.177 339.26C159.177 339.302 158.999 339.26 158.706 339.26H158.079L158.706 339.072C159.523 338.831 161.448 338.434 163.708 338.025C165.52 337.632 167.367 337.418 169.222 337.387Z" fill="#455A64"/>
<path d="M168.793 340.39C167.161 340.465 165.525 340.391 163.906 340.17C162.272 340.137 160.644 339.958 159.041 339.637C162.311 339.37 165.603 339.624 168.793 340.39Z" fill="#455A64"/>
<path opacity="0.2" d="M117.69 261.278C118.24 261.983 118.932 262.565 119.722 262.985C120.512 263.405 121.381 263.654 122.273 263.716C124.142 263.937 126.033 263.902 127.892 263.611C139.872 262.282 152.564 261.058 164.294 258.201C149.112 259.049 133.071 258.766 117.889 259.614L117.732 260.911" fill="black"/>
<g opacity="0.2">
<path d="M133.333 282.675L141.892 315.885L141.296 284.077L133.333 282.675Z" fill="black"/>
</g>
</svg>
